HIERARCHY
ROOT Hips
{
	OFFSET -3.958830 18.904000 13.208200
	CHANNELS 6 Xposition Yposition Zposition Zrotation Yrotation Xrotation 
	JOINT LHipJoint
	{
		OFFSET 0.000000 0.000000 0.000000
		CHANNELS 3 Zrotation Yrotation Xrotation
		JOINT LeftUpLeg
		{
			OFFSET 1.800000 -1.400000 0.085000
			CHANNELS 3 Zrotation Yrotation Xrotation
			JOINT LeftLeg
			{
				OFFSET 2.215000 -6.000000 0.000000
				CHANNELS 3 Zrotation Yrotation Xrotation
				JOINT LeftFoot
				{
					OFFSET 2.500000 -6.900000 0.000000
					CHANNELS 3 Zrotation Yrotation Xrotation
					JOINT LeftToeBase
					{
						OFFSET 0.200000 -0.500000 1.950000
						CHANNELS 3 Zrotation Yrotation Xrotation
						End Site
						{
							OFFSET 0.000000 0.000000 0.000000
						}
					}
				}
			}
		}
	}
	JOINT RHipJoint
	{
		OFFSET 0.000000 0.000000 0.000000
		CHANNELS 3 Zrotation Yrotation Xrotation
		JOINT RightUpLeg
		{
			OFFSET -1.800000 -1.400000 0.085000
			CHANNELS 3 Zrotation Yrotation Xrotation
			JOINT RightLeg
			{
				OFFSET -2.215000 -6.000000 0.000000
				CHANNELS 3 Zrotation Yrotation Xrotation
				JOINT RightFoot
				{
					OFFSET -2.500000 -6.900000 0.000000
					CHANNELS 3 Zrotation Yrotation Xrotation
					JOINT RightToeBase
					{
						OFFSET -0.200000 -0.500000 1.950000
						CHANNELS 3 Zrotation Yrotation Xrotation
						End Site
						{
							OFFSET 0.000000 0.000000 0.000000
						}
					}
				}
			}
		}
	}
	JOINT LowerBack
	{
		OFFSET 0.000000 0.000000 0.000000
		CHANNELS 3 Zrotation Yrotation Xrotation
		JOINT Spine
		{
			OFFSET -0.087000 1.940000 -0.288900
			CHANNELS 3 Zrotation Yrotation Xrotation
			JOINT Spine1
			{
				OFFSET 0.000000 1.950000 0.060000
				CHANNELS 3 Zrotation Yrotation Xrotation
				JOINT Neck
				{
					OFFSET 0.000000 0.000000 0.000000
					CHANNELS 3 Zrotation Yrotation Xrotation
					JOINT Neck1
					{
						OFFSET 0.000000 1.600000 0.340000
						CHANNELS 3 Zrotation Yrotation Xrotation
						JOINT Head
						{
							OFFSET 0.000000 1.667000 -0.240000
							CHANNELS 3 Zrotation Yrotation Xrotation
							End Site
							{
								OFFSET 0.000000 0.000000 0.000000
							}
						}
					}
				}
				JOINT LeftShoulder
				{
					OFFSET 0.000000 0.000000 0.000000
					CHANNELS 3 Zrotation Yrotation Xrotation
					JOINT LeftArm
					{
						OFFSET 2.700000 1.550000 -0.730000
						CHANNELS 3 Zrotation Yrotation Xrotation
						JOINT LeftForeArm
						{
							OFFSET 5.450000 0.000000 0.000000
							CHANNELS 3 Zrotation Yrotation Xrotation
							JOINT LeftHand
							{
								OFFSET 3.450000 0.000000 0.000000
								CHANNELS 3 Zrotation Yrotation Xrotation
								JOINT LeftHandIndex1
								{
									OFFSET 0.750000 0.000000 0.000000
									CHANNELS 3 Zrotation Yrotation Xrotation
									End Site
									{
										OFFSET 0.000000 0.000000 0.000000
									}
								}
							}
						}
					}
				}
				JOINT RightShoulder
				{
					OFFSET 0.000000 0.000000 0.000000
					CHANNELS 3 Zrotation Yrotation Xrotation
					JOINT RightArm
					{
						OFFSET -2.700000 1.550000 -0.730000
						CHANNELS 3 Zrotation Yrotation Xrotation
						JOINT RightForeArm
						{
							OFFSET -5.450000 0.000000 0.000000
							CHANNELS 3 Zrotation Yrotation Xrotation
							JOINT RightHand
							{
								OFFSET -3.450000 0.000000 0.000000
								CHANNELS 3 Zrotation Yrotation Xrotation
								JOINT RightHandIndex1
								{
									OFFSET -0.750000 0.000000 0.000000
									CHANNELS 3 Zrotation Yrotation Xrotation
									End Site
									{
										OFFSET 0.000000 0.000000 0.000000
									}
								}
							}
						}
					}
				}
			}
		}
	}
}
MOTION
Frames: 9
Frame Time: 0.016667
-0.358790 16.466980 -3.957180 -4.780775 -13.664598 -4.256721 -15.119273 14.093134 2.782802 9.211958 -1.453687 -0.469301 -8.190070 12.228072 35.487500 0.164107 8.444456 1.756919 0.225530 -0.290240 0.315810 18.262596 -10.107309 3.334439 1.685660 4.422863 -26.751816 5.816496 -4.306561 14.211517 -0.041497 -2.031372 3.767394 -0.135340 0.227270 0.294300 -3.431637 -3.460861 -7.802962 13.142953 -7.245142 18.514104 -7.279333 -5.227393 8.864129 4.925375 -1.369504 -13.072092 -4.322789 9.311284 36.269113 -4.860720 10.953060 -12.233910 -12.864208 -7.416325 3.512089 -34.971415 -2.270942 -2.341681 10.497325 -1.331076 -1.082930 -3.979203 2.614992 0.911100 0.106110 0.047110 0.102110 3.035196 6.644471 11.750265 41.654926 -13.085060 -7.520301 142.173044 46.269543 78.614309 1.890160 -1.985862 -0.383710 0.179600 0.115980 -0.396250 
-0.386260 16.478900 -3.920990 -5.087333 -13.649084 -3.936229 -15.115449 14.083667 2.738825 9.579219 -1.571935 -1.068006 -7.648672 12.210429 36.395750 0.182762 8.525448 1.736684 0.211480 -0.303330 0.294800 18.271944 -10.108709 3.347088 2.090226 4.501340 -26.364883 5.802438 -4.242374 13.816724 -0.026289 -2.045371 3.773817 -0.138430 0.259600 0.301720 -3.454736 -3.409736 -7.770000 13.663155 -7.266963 17.811791 -7.113316 -5.368173 8.588950 5.044586 -1.372070 -12.699976 -4.090936 9.331070 35.450547 -5.032320 11.108550 -10.814860 -12.412747 -5.709412 2.891169 -36.541273 -1.448867 -3.092402 11.505709 -2.610495 -1.241847 -3.999439 2.631351 0.877700 0.136630 0.023110 0.114070 2.353763 4.954616 11.641816 43.537554 -13.769483 -7.180998 145.508185 45.673148 83.213642 1.855634 -2.045015 -0.383870 0.173640 0.117800 -0.382560 
-0.432660 16.508810 -3.860780 -5.373812 -14.224757 -3.475757 -15.121525 14.079532 2.713954 9.988686 -1.689379 -1.952056 -7.217465 12.412429 37.821825 0.216060 8.717173 1.683824 0.171610 -0.356920 0.267900 18.272803 -10.092339 3.362086 2.715811 4.594000 -25.701959 5.610808 -4.123901 13.160883 0.001248 -2.029857 3.809569 -0.164460 0.301650 0.293640 -3.443337 -3.398911 -7.762078 14.053970 -6.989582 16.924928 -6.431622 -5.238418 7.703623 5.130270 -1.465255 -12.262458 -4.099082 9.274796 35.033619 -5.081960 11.208370 -9.071240 -11.048436 -2.834339 2.055678 -39.866846 0.086610 -4.375546 12.093054 -4.533966 -1.500157 -4.018889 2.607085 0.863190 0.166540 -0.011270 0.116500 0.863080 2.315618 11.446257 46.764653 -15.286914 -7.415021 145.694131 44.595495 82.394977 1.807173 -2.103578 -0.406090 0.182020 0.133490 -0.380150 
-0.489240 16.536130 -3.781710 -5.622354 -14.681296 -2.778816 -15.118086 14.023970 2.673229 10.374660 -1.827645 -3.042199 -6.760800 12.603134 39.354349 0.252254 8.911825 1.627759 0.146010 -0.386280 0.240500 18.290818 -10.095707 3.358534 3.048313 4.510562 -24.583055 6.048081 -4.013796 11.539605 0.018420 -2.042401 3.831903 -0.173050 0.343370 0.292650 -3.482824 -3.280928 -7.711016 14.565258 -6.582054 15.195774 -5.731016 -5.084586 7.053906 5.063524 -1.462141 -11.555009 -3.907158 9.186153 34.460396 -5.073710 11.338680 -7.217460 -9.744909 0.345904 1.178949 -42.790497 1.738315 -5.675701 11.970199 -6.078765 -1.708733 -4.048873 2.592810 0.836490 0.202300 -0.042040 0.131360 -0.270799 -0.847810 10.972189 49.263358 -17.159253 -7.483640 146.372286 42.973294 81.754213 1.750527 -2.190765 -0.421370 0.183730 0.136780 -0.370690 
-0.532630 16.571140 -3.703760 -6.238587 -15.263254 -2.441339 -15.091321 14.017981 2.638589 11.033145 -1.880988 -3.659713 -6.139140 12.675909 40.545733 0.306425 9.015074 1.580302 0.120200 -0.423160 0.229620 18.315467 -10.114428 3.379110 3.466398 4.357835 -22.932215 6.677151 -3.947648 9.786871 0.015350 -2.062899 3.847484 -0.211850 0.326520 0.284100 -3.554189 -3.208828 -7.720394 15.791455 -6.366785 14.616354 -5.362986 -4.829731 5.744563 5.111317 -1.472154 -11.261357 -3.845508 9.075681 34.758639 -4.765440 11.505850 -5.864910 -8.546500 3.194412 0.595356 -45.478968 4.093301 -7.350016 11.522185 -8.043595 -1.925584 -4.028613 2.592795 0.830400 0.191550 -0.047430 0.119980 -1.604529 -3.577073 10.933207 52.080648 -20.011565 -8.372992 146.524180 41.620144 80.190665 1.723845 -2.245144 -0.409970 0.149990 0.137130 -0.372630 
-0.578950 16.602750 -3.624260 -6.824017 -16.165633 -1.961419 -15.073523 14.040995 2.586322 11.554469 -1.731062 -3.930562 -5.522958 12.621511 40.993406 0.344768 9.017866 1.582772 0.080900 -0.463390 0.189790 18.335805 -10.100771 3.423460 4.110342 4.213305 -21.202428 7.195142 -3.800825 7.748710 0.011274 -2.089495 3.866573 -0.248090 0.340870 0.269370 -3.603694 -3.220171 -7.728689 16.822012 -6.080207 13.775416 -4.369887 -4.595560 4.297873 4.899700 -1.827568 -11.031728 -4.478148 9.354722 35.378294 -3.813660 11.403610 -3.933330 -7.736035 5.931508 0.258216 -47.940113 7.259824 -9.201979 10.527285 -9.841097 -2.078650 -4.014534 2.571785 0.819280 0.189500 -0.059930 0.121410 -1.999315 -5.856098 10.768512 53.229895 -22.612739 -9.137941 147.965020 40.959728 81.700677 1.717720 -2.260000 -0.409030 0.141600 0.145740 -0.357080 
-0.618390 16.626340 -3.538470 -7.511163 -16.917375 -1.585903 -15.039082 14.079843 2.523667 12.114221 -1.537437 -3.829193 -4.860567 12.508595 41.232868 0.377542 8.981231 1.591954 0.070080 -0.471360 0.162310 18.373594 -10.077634 3.474429 4.795418 3.981306 -19.298398 7.607421 -3.629565 5.579081 -0.015510 -2.130529 3.877562 -0.270690 0.339560 0.251820 -3.707426 -3.273513 -7.724063 18.423303 -6.127143 12.866559 -3.694577 -4.589595 2.627558 4.501041 -2.659198 -10.946990 -6.087615 10.178581 36.629105 -2.031020 10.934680 -2.430410 -6.972187 8.254199 0.259144 -50.417650 10.608070 -10.875589 9.797369 -10.402127 -2.098892 -3.989280 2.548327 0.822090 0.166500 -0.056880 0.128060 -2.031737 -7.360886 10.398241 53.017074 -23.934644 -9.560286 148.092261 40.572685 81.608415 1.734623 -2.255319 -0.397210 0.137680 0.143420 -0.339420 
-0.661520 16.649810 -3.461340 -7.947683 -18.183032 -1.258285 -15.006867 14.130927 2.491694 12.486526 -1.275178 -3.424621 -4.626363 12.507343 40.977785 0.411519 8.904722 1.606461 0.064630 -0.476760 0.153550 18.405134 -10.048834 3.531113 5.647818 3.793256 -17.863421 7.519978 -3.488159 4.099972 -0.053084 -2.139817 3.884925 -0.301770 0.308260 0.243490 -3.790782 -3.362817 -7.741844 19.761658 -6.356896 12.095246 -3.689718 -4.719289 0.872315 4.379716 -3.289845 -11.155524 -7.380246 11.202227 38.818884 -0.903050 11.074620 -1.073130 -5.518822 10.397937 0.395029 -53.177267 13.762337 -12.395285 11.025124 -9.080682 -1.975512 -3.978441 2.511876 0.847550 0.128500 -0.026100 0.128300 -3.351955 -8.756902 10.321085 53.886136 -24.784769 -9.595273 147.611235 39.527449 79.991215 1.745549 -2.265781 -0.377330 0.117320 0.133750 -0.332080 
-0.709230 16.674040 -3.398940 -8.286213 -20.421888 -0.930429 -14.978096 14.203157 2.502741 12.817932 -0.923422 -2.801070 -4.893877 12.776265 40.519877 0.445255 8.858386 1.597315 0.083550 -0.468050 0.187990 18.428389 -9.995129 3.600501 6.871607 3.672936 -16.679857 6.902107 -3.359097 3.133167 -0.109037 -2.090413 3.898618 -0.332460 0.234120 0.240390 -3.847286 -3.534982 -7.800109 21.006088 -6.864117 11.842512 -4.379858 -4.966712 -1.260359 4.476767 -3.854667 -11.665138 -8.631274 12.665107 42.260361 -0.253440 12.002210 -0.633010 -3.597052 12.577622 0.780591 -55.477909 17.794002 -13.966381 11.906685 -7.155589 -1.674404 -3.953914 2.446193 0.916040 0.062440 0.041650 0.119070 -5.619296 -10.118998 10.299307 55.144717 -24.871765 -9.836108 143.909370 39.110964 74.699734 1.751281 -2.245360 -0.353850 0.090190 0.111530 -0.347950 
